#define 1b654b2d8f2b447bfee9ffa69bec93fatqD6ygWQShOplxBv_width 107
#define 1b654b2d8f2b447bfee9ffa69bec93fatqD6ygWQShOplxBv_height 106
static char 1b654b2d8f2b447bfee9ffa69bec93fatqD6ygWQShOplxBv_bits[] = {
  0x00, 0x00, 0x00, 0x00, 0x00, 0x00, 0x00, 0x00, 0x00, 0x00, 0x00, 0x00, 
  0x00, 0x00, 0x00, 0x00, 0x00, 0x00, 0x00, 0x00, 0x00, 0x00, 0x00, 0x00, 
  0x00, 0x00, 0x00, 0x00, 0x00, 0x00, 0x00, 0x00, 0x00, 0x00, 0x00, 0x00, 
  0x00, 0x00, 0x00, 0x00, 0x00, 0x00, 0x00, 0x00, 0x00, 0x00, 0x00, 0x00, 
  0x00, 0x00, 0x00, 0x00, 0x00, 0x00, 0x00, 0x00, 0x00, 0x00, 0x00, 0x00, 
  0x00, 0x00, 0x00, 0x00, 0x00, 0x00, 0x00, 0x00, 0x00, 0x00, 0x00, 0x00, 
  0x00, 0x00, 0x00, 0x00, 0x00, 0x00, 0x00, 0x00, 0x00, 0x00, 0x00, 0x00, 
  0x00, 0x00, 0x00, 0x00, 0x00, 0x00, 0x00, 0x00, 0x00, 0x00, 0x00, 0x00, 
  0x00, 0x00, 0x00, 0x00, 0x00, 0x00, 0x00, 0x00, 0x00, 0x00, 0x00, 0x00, 
  0x00, 0x00, 0x00, 0x00, 0x00, 0x00, 0x00, 0x00, 0x00, 0x00, 0x00, 0x00, 
  0x00, 0x00, 0x00, 0x00, 0x00, 0x00, 0x00, 0x00, 0x00, 0x00, 0x00, 0x00, 
  0x00, 0x00, 0x00, 0x00, 0x00, 0x00, 0x00, 0x00, 0x00, 0x00, 0x00, 0x00, 
  0x00, 0x00, 0x00, 0x00, 0x00, 0x00, 0x00, 0x00, 0x00, 0x00, 0x00, 0x00, 
  0x00, 0x00, 0x00, 0x00, 0x00, 0x00, 0x00, 0x00, 0x00, 0x00, 0x00, 0x00, 
  0x00, 0x00, 0x00, 0x00, 0x00, 0x00, 0x00, 0x00, 0x00, 0x00, 0x00, 0x00, 
  0x00, 0x00, 0x00, 0x00, 0x00, 0x00, 0x00, 0x00, 0x00, 0x00, 0x00, 0x00, 
  0x00, 0x00, 0x00, 0x00, 0x00, 0x00, 0x00, 0x00, 0x00, 0x00, 0x00, 0x00, 
  0x00, 0x00, 0x10, 0x00, 0x00, 0x00, 0x00, 0x00, 0x00, 0x00, 0x00, 0x18, 
  0x00, 0x00, 0x00, 0x00, 0x78, 0x00, 0x00, 0x00, 0x00, 0x00, 0x00, 0x00, 
  0x1C, 0x78, 0x00, 0x00, 0x00, 0x00, 0xFC, 0x00, 0x00, 0x00, 0x00, 0x00, 
  0x00, 0x00, 0x3E, 0xF8, 0xFF, 0xFF, 0xFF, 0xFF, 0xFF, 0x01, 0x00, 0x00, 
  0x00, 0x00, 0x00, 0x00, 0x7F, 0xF8, 0xFF, 0xFF, 0xFF, 0xFF, 0xFF, 0x03, 
  0x00, 0x00, 0x00, 0x00, 0x00, 0x80, 0xFF, 0xF8, 0xFF, 0xFF, 0xFF, 0xFF, 
  0xFF, 0x07, 0x00, 0x00, 0x00, 0xF0, 0xFF, 0xFF, 0xFF, 0xF9, 0x01, 0xC0, 
  0x0F, 0x00, 0xFC, 0x03, 0x00, 0x00, 0x00, 0xF0, 0xFF, 0xFF, 0xFF, 0xFB, 
  0x01, 0xC0, 0x0F, 0x00, 0xFC, 0x00, 0x00, 0x00, 0x00, 0xF0, 0xFF, 0xFF, 
  0xFF, 0xFB, 0x01, 0xC0, 0x0F, 0x00, 0xFC, 0x00, 0x00, 0x00, 0x00, 0x00, 
  0x80, 0x1F, 0x00, 0xF8, 0x01, 0xC0, 0x0F, 0x00, 0xFC, 0x00, 0x00, 0x00, 
  0x00, 0x00, 0x80, 0x1F, 0x00, 0xF8, 0x01, 0xC0, 0x0F, 0x00, 0xFC, 0x00, 
  0x00, 0x00, 0x00, 0x00, 0x80, 0x1F, 0x00, 0xF8, 0x01, 0xC0, 0x0F, 0x00, 
  0xFC, 0x00, 0x00, 0x00, 0x00, 0x00, 0x80, 0x1F, 0x00, 0xF8, 0x01, 0xC0, 
  0x0F, 0x00, 0xFC, 0x00, 0x00, 0x00, 0x00, 0x00, 0x80, 0x1F, 0x00, 0xF8, 
  0x01, 0xC0, 0x0F, 0x00, 0xFC, 0x00, 0x00, 0x00, 0x00, 0x00, 0x80, 0x1F, 
  0x00, 0xF8, 0x01, 0xC0, 0x0F, 0x00, 0xFC, 0x00, 0x00, 0x00, 0x00, 0x00, 
  0x80, 0x1F, 0x00, 0xF8, 0x01, 0xC0, 0x0F, 0x00, 0xFC, 0x00, 0x00, 0x00, 
  0x00, 0x00, 0x80, 0x1F, 0x00, 0xF8, 0x01, 0xC0, 0x0F, 0x00, 0xFC, 0x00, 
  0x00, 0x00, 0x00, 0x00, 0x80, 0x1F, 0x00, 0xF8, 0x01, 0xC0, 0x0F, 0x00, 
  0xFC, 0x00, 0x00, 0x00, 0x00, 0x00, 0x80, 0x1F, 0x00, 0xF8, 0x01, 0xC0, 
  0x0F, 0x00, 0xFC, 0x00, 0x00, 0x00, 0x00, 0x00, 0x80, 0x1F, 0x00, 0xF8, 
  0x01, 0xC0, 0x0F, 0x00, 0xFC, 0x00, 0x00, 0x00, 0x00, 0x00, 0x80, 0x1F, 
  0x00, 0xF8, 0x01, 0xC0, 0x0F, 0x00, 0xFC, 0x00, 0x00, 0x00, 0x00, 0x00, 
  0x80, 0x1F, 0x00, 0xF8, 0xFF, 0xFF, 0xFF, 0xFF, 0xFF, 0x00, 0x00, 0x00, 
  0x00, 0x00, 0x80, 0x1F, 0x00, 0xF8, 0xFF, 0xFF, 0xFF, 0xFF, 0xFF, 0x00, 
  0x00, 0x00, 0x00, 0x00, 0x80, 0x1F, 0x00, 0xF8, 0xFF, 0xFF, 0xFF, 0xFF, 
  0xFF, 0x00, 0x00, 0x00, 0x00, 0x00, 0x80, 0x1F, 0x00, 0xF8, 0x01, 0xC0, 
  0x0F, 0x00, 0xFC, 0x00, 0x00, 0x00, 0x00, 0x00, 0x80, 0x1F, 0x00, 0xF8, 
  0x01, 0xC0, 0x0F, 0x00, 0xFC, 0x00, 0x00, 0x00, 0x00, 0x00, 0x80, 0x1F, 
  0x0C, 0xF8, 0x01, 0xC0, 0x0F, 0x00, 0xFC, 0x00, 0x00, 0x00, 0x00, 0x00, 
  0x80, 0x1F, 0x1E, 0xF8, 0x01, 0xC0, 0x0F, 0x00, 0xFC, 0x00, 0x00, 0x00, 
  0x00, 0x00, 0x80, 0x1F, 0x3F, 0xF8, 0x01, 0xC0, 0x0F, 0x00, 0xFC, 0x00, 
  0x00, 0x00, 0x00, 0x00, 0x80, 0x1F, 0x7F, 0xF8, 0x01, 0xC0, 0x0F, 0x00, 
  0xFC, 0x00, 0x00, 0x00, 0x00, 0xF0, 0xFF, 0xFF, 0xFF, 0xF8, 0x01, 0xC0, 
  0x0F, 0x00, 0xFC, 0x00, 0x00, 0x00, 0x00, 0xF0, 0xFF, 0xFF, 0xFF, 0xF9, 
  0x01, 0xC0, 0x0F, 0x00, 0xFC, 0x00, 0x00, 0x00, 0x00, 0xF0, 0xFF, 0xFF, 
  0xFF, 0xF9, 0x01, 0xC0, 0x0F, 0x00, 0xFC, 0x00, 0x00, 0x00, 0x00, 0x00, 
  0x80, 0x1F, 0x00, 0xF8, 0x01, 0xC0, 0x0F, 0x00, 0xFC, 0x00, 0x00, 0x00, 
  0x00, 0x00, 0x80, 0x1F, 0x00, 0xF8, 0x01, 0xC0, 0x0F, 0x00, 0xFC, 0x00, 
  0x00, 0x00, 0x00, 0x00, 0x80, 0x1F, 0x00, 0xF8, 0x01, 0xC0, 0x0F, 0x00, 
  0xFC, 0x00, 0x00, 0x00, 0x00, 0x00, 0x80, 0x1F, 0x00, 0xF8, 0x01, 0xC0, 
  0x0F, 0x00, 0xFC, 0x00, 0x00, 0x00, 0x00, 0x00, 0x80, 0x1F, 0x00, 0xF8, 
  0x01, 0xC0, 0x0F, 0x00, 0xFC, 0x00, 0x00, 0x00, 0x00, 0x00, 0x80, 0x1F, 
  0x00, 0xF8, 0xFF, 0xFF, 0xFF, 0xFF, 0xFF, 0x00, 0x00, 0x00, 0x00, 0x00, 
  0x80, 0x1F, 0x00, 0xF8, 0xFF, 0xFF, 0xFF, 0xFF, 0xFF, 0x00, 0x00, 0x00, 
  0x00, 0x00, 0x80, 0x1F, 0x00, 0xF8, 0xFF, 0xFF, 0xFF, 0xFF, 0xFF, 0x00, 
  0x00, 0x00, 0x00, 0x00, 0x80, 0x1F, 0x00, 0xF8, 0x01, 0xC0, 0x0F, 0x00, 
  0xFC, 0x00, 0x00, 0x00, 0x00, 0x00, 0x80, 0x1F, 0x00, 0xF8, 0x01, 0xC0, 
  0x0F, 0x00, 0xFC, 0x00, 0x00, 0x00, 0x00, 0x00, 0x80, 0x1F, 0x00, 0xF8, 
  0x01, 0xC0, 0x0F, 0x00, 0x7C, 0x00, 0x00, 0x00, 0x00, 0x00, 0x80, 0x1F, 
  0x00, 0xF8, 0x01, 0xC0, 0x0F, 0x00, 0x1C, 0x00, 0x00, 0x00, 0x00, 0x00, 
  0x80, 0x1F, 0x00, 0xF8, 0x00, 0xC0, 0x0F, 0x00, 0x00, 0x00, 0x00, 0x00, 
  0x00, 0x00, 0x80, 0x1F, 0x00, 0x00, 0x00, 0xC0, 0x0F, 0x00, 0x00, 0x00, 
  0x00, 0x00, 0x00, 0x00, 0x80, 0x1F, 0x00, 0x00, 0x00, 0xC0, 0x0F, 0x00, 
  0x00, 0x00, 0x00, 0x00, 0x00, 0x00, 0x80, 0x1F, 0x00, 0x00, 0x00, 0xC0, 
  0x0F, 0x00, 0x00, 0x00, 0x00, 0x00, 0x00, 0x00, 0x80, 0x1F, 0x00, 0x00, 
  0x00, 0xC0, 0x0F, 0x00, 0x00, 0x00, 0x00, 0x00, 0x00, 0x00, 0x80, 0x1F, 
  0x00, 0x00, 0x00, 0xC0, 0x0F, 0x00, 0x1C, 0x00, 0x00, 0x00, 0x00, 0x00, 
  0x80, 0x1F, 0x00, 0x00, 0x00, 0xC0, 0x0F, 0x00, 0x3E, 0x00, 0x00, 0x00, 
  0x00, 0x00, 0x80, 0x1F, 0x80, 0x03, 0x00, 0xC0, 0x0F, 0x00, 0x7F, 0x00, 
  0x00, 0x00, 0x00, 0x00, 0x80, 0x1F, 0xF0, 0x03, 0x00, 0xC0, 0x0F, 0x00, 
  0xFF, 0x00, 0x00, 0x00, 0x00, 0x00, 0x80, 0x1F, 0xFE, 0xF8, 0xFF, 0xFF, 
  0xFF, 0xFF, 0xFF, 0x01, 0x00, 0x00, 0x00, 0x00, 0x80, 0xDF, 0x3F, 0xF8, 
  0xFF, 0xFF, 0xFF, 0xFF, 0xFF, 0x03, 0x00, 0x00, 0x00, 0x00, 0x80, 0xFF, 
  0x0F, 0xF8, 0xFF, 0xFF, 0xFF, 0xFF, 0xFF, 0x03, 0x00, 0x00, 0x00, 0x00, 
  0x80, 0xFF, 0x07, 0x00, 0x00, 0xC0, 0x0F, 0x00, 0x00, 0x00, 0x00, 0x00, 
  0x00, 0x00, 0xC0, 0xFF, 0x01, 0x00, 0x00, 0xC0, 0x0F, 0x00, 0x00, 0x00, 
  0x00, 0x00, 0x00, 0x00, 0xF8, 0x7F, 0x00, 0x00, 0x00, 0xC0, 0x0F, 0x00, 
  0x00, 0x00, 0x00, 0x00, 0x00, 0x00, 0xFF, 0x1F, 0x00, 0x00, 0x00, 0xC0, 
  0x0F, 0x00, 0x00, 0x00, 0x00, 0x00, 0x00, 0xE0, 0xFF, 0x07, 0x00, 0x00, 
  0x00, 0xC0, 0x0F, 0x00, 0x00, 0x00, 0x00, 0x00, 0x00, 0xF8, 0xFF, 0x01, 
  0x00, 0x00, 0x00, 0xC0, 0x0F, 0x00, 0x00, 0x00, 0x00, 0x00, 0x00, 0xF8, 
  0x7F, 0x00, 0x00, 0x00, 0x00, 0xC0, 0x0F, 0x00, 0x00, 0x00, 0x00, 0x00, 
  0x00, 0xF8, 0x1F, 0x00, 0x00, 0x00, 0x00, 0xC0, 0x0F, 0x00, 0x00, 0x00, 
  0x00, 0x00, 0x00, 0xF0, 0x07, 0x00, 0x00, 0x00, 0x00, 0xC0, 0x0F, 0x00, 
  0x00, 0x00, 0x00, 0x00, 0x00, 0xF0, 0x01, 0x00, 0x00, 0x00, 0x00, 0xC0, 
  0x0F, 0x00, 0x00, 0x00, 0x00, 0x00, 0x00, 0xF0, 0x00, 0x00, 0x00, 0x00, 
  0x00, 0xC0, 0x0F, 0x00, 0x00, 0x00, 0x00, 0x00, 0x00, 0x60, 0x00, 0x00, 
  0x00, 0x00, 0x00, 0xC0, 0x0F, 0x00, 0xC0, 0x00, 0x00, 0x00, 0x00, 0x20, 
  0x00, 0x00, 0x00, 0x00, 0x00, 0xC0, 0x0F, 0x00, 0xE0, 0x01, 0x00, 0x00, 
  0x00, 0x00, 0x00, 0x00, 0x00, 0x00, 0x00, 0xC0, 0x0F, 0x00, 0xF0, 0x03, 
  0x00, 0x00, 0x00, 0x00, 0x00, 0x00, 0x00, 0x00, 0x00, 0xC0, 0x0F, 0x00, 
  0xF0, 0x07, 0x00, 0x00, 0x00, 0x00, 0x00, 0x00, 0x00, 0x00, 0x00, 0xC0, 
  0x0F, 0x00, 0xF8, 0x0F, 0x00, 0x00, 0x00, 0x00, 0x00, 0x00, 0xFC, 0xFF, 
  0xFF, 0xFF, 0xFF, 0xFF, 0xFF, 0x1F, 0x00, 0x00, 0x00, 0x00, 0x00, 0x00, 
  0xFC, 0xFF, 0xFF, 0xFF, 0xFF, 0xFF, 0xFF, 0x3F, 0x00, 0x00, 0x00, 0x00, 
  0x00, 0x00, 0x00, 0x00, 0x00, 0x00, 0x00, 0x00, 0x00, 0x00, 0x00, 0x00, 
  0x00, 0x00, 0x00, 0x00, 0x00, 0x00, 0x00, 0x00, 0x00, 0x00, 0x00, 0x00, 
  0x00, 0x00, 0x00, 0x00, 0x00, 0x00, 0x00, 0x00, 0x00, 0x00, 0x00, 0x00, 
  0x00, 0x00, 0x00, 0x00, 0x00, 0x00, 0x00, 0x00, 0x00, 0x00, 0x00, 0x00, 
  0x00, 0x00, 0x00, 0x00, 0x00, 0x00, 0x00, 0x00, 0x00, 0x00, 0x00, 0x00, 
  0x00, 0x00, 0x00, 0x00, 0x00, 0x00, 0x00, 0x00, 0x00, 0x00, 0x00, 0x00, 
  0x00, 0x00, 0x00, 0x00, 0x00, 0x00, 0x00, 0x00, 0x00, 0x00, 0x00, 0x00, 
  0x00, 0x00, 0x00, 0x00, 0x00, 0x00, 0x00, 0x00, 0x00, 0x00, 0x00, 0x00, 
  0x00, 0x00, 0x00, 0x00, 0x00, 0x00, 0x00, 0x00, 0x00, 0x00, 0x00, 0x00, 
  0x00, 0x00, 0x00, 0x00, 0x00, 0x00, 0x00, 0x00, 0x00, 0x00, 0x00, 0x00, 
  0x00, 0x00, 0x00, 0x00, 0x00, 0x00, 0x00, 0x00, 0x00, 0x00, 0x00, 0x00, 
  0x00, 0x00, 0x00, 0x00, 0x00, 0x00, 0x00, 0x00, 0x00, 0x00, 0x00, 0x00, 
  0x00, 0x00, 0x00, 0x00, 0x00, 0x00, 0x00, 0x00, 0x00, 0x00, 0x00, 0x00, 
  0x00, 0x00, 0x00, 0x00, 0x00, 0x00, 0x00, 0x00, 0x00, 0x00, 0x00, 0x00, 
  0x00, 0x00, 0x00, 0x00, 0x00, 0x00, 0x00, 0x00, 0x00, 0x00, 0x00, 0x00, 
  0x00, 0x00, 0x00, 0x00, 0x00, 0x00, 0x00, 0x00, 0x00, 0x00, 0x00, 0x00, 
  0x00, 0x00, 0x00, 0x00, 0x00, 0x00, 0x00, 0x00, 0x00, 0x00, 0x00, 0x00, 
  0x00, 0x00, 0x00, 0x00, 0x00, 0x00, 0x00, 0x00, 0x00, 0x00, 0x00, 0x00, 
  0x00, 0x00, 0x00, 0x00, 0x00, 0x00, 0x00, 0x00, 0x00, 0x00, 0x00, 0x00, 
  0x00, 0x00, 0x00, 0x00, 0x00, 0x00, 0x00, 0x00, };
