/* XPM */
static char * li_xpm[] = {
"107 106 12 1",
" 	c None",
".	c #000000",
"+	c #060606",
"@	c #050505",
"#	c #020202",
"$	c #0A0A0A",
"%	c #040404",
"&	c #010101",
"*	c #030303",
"=	c #0B0B0B",
"-	c #080808",
";	c #070707",
"                                                                                                           ",
"                                                                                                           ",
"                                                                                                           ",
"                                                                                                           ",
"                                                                                                           ",
"                                                                                                           ",
"                                                                                                           ",
"                                                                                                           ",
"                                                                                                           ",
"                                                                                                           ",
"                                                                                                           ",
"                                                                                                           ",
"                                                                                                           ",
"                                                                                                           ",
"                                                                                    .                      ",
"                                           ..                                      ...+                    ",
"                                  ..@      ....                                   ......                   ",
"                                 .....     ......################################........                  ",
"                                #......    ...............................................                 ",
"                               $........   ................................................                ",
"            @@@@@@@@@@@@@@@@@@%..........  ......             ......              .......#                 ",
"            .............................. ......             ......              ......                   ",
"            .............................. ......             ......              .....&                   ",
"                       ......              ......             ......              .....&                   ",
"                       ......              ......             ......              .....&                   ",
"                       ......              ......             ......              .....&                   ",
"                       ......              ......             ......              .....&                   ",
"                       ......              ......             ......              .....&                   ",
"                       ......              ......             ......              .....&                   ",
"                       ......              ......             ......              .....&                   ",
"                       ......              ......             ......              .....&                   ",
"                       ......              ......             ......              .....&                   ",
"                       ......              ......             ......              .....&                   ",
"                       ......              ......             ......              .....&                   ",
"                       ......              ......             ......              .....&                   ",
"                       ......              ............................................&                   ",
"                       ......              ............................................&                   ",
"                       ......              ............................................&                   ",
"                       ......              ......             ......              .....&                   ",
"                       ......              ......             ......              .....&                   ",
"                       ......     ..       ......             ......              .....&                   ",
"                       ......    ....      ......             ......              .....&                   ",
"                       ......   +.....     ......             ......              .....&                   ",
"                       ......   .......    ......             ......              .....&                   ",
"            +@@@@@@@@@@......@@.........   ......             ......              .....&                   ",
"            .............................  ......             ......              .....&                   ",
"            %...........................%  ......             ......              .....&                   ",
"                       ......              ......             ......              .....&                   ",
"                       ......              ......             ......              .....&                   ",
"                       ......              ......             ......              .....&                   ",
"                       ......              ......             ......              .....&                   ",
"                       ......              ......             ......              .....&                   ",
"                       ......              ......#############......##############.....&                   ",
"                       ......              ............................................&                   ",
"                       ......              ............................................&                   ",
"                       ......              ......             ......              .....&                   ",
"                       ......              ......             ......              .....&                   ",
"                       ......              ......             ......              .....                    ",
"                       ......              ......             ......              ..#                      ",
"                       ......              .....              ......                                       ",
"                       ......                                 ......                                       ",
"                       ......                                 ......                                       ",
"                       ......                                 ......                                       ",
"                       ......                                 ......                                       ",
"                       ......                                 ......              ...                      ",
"                       ......                                 ......             .....                     ",
"                       ......          &..                    ......            %......                    ",
"                       ......       #....*                    ......            ........                   ",
"                       ......    %.....&   &&&&&&&&&&&&&&&&&&&......&&&&&&&&&&&..........                  ",
"                       ...... +.......     ...............................................                 ",
"                       .............       ...............................................                 ",
"                       ...........=                           ......                                       ",
"                      -.........-                             ......                                       ",
"                   -..........@                               ......                                       ",
"                ;...........*                                 ......                                       ",
"             @............&                                   ......                                       ",
"           ..............                                     ......                                       ",
"           ............                                       ......                                       ",
"           #.........                                         ......                                       ",
"            .......                                           ......                                       ",
"            .....                                             ......                                       ",
"            ;..+                                              ......                                       ",
"             ..                                               ......                  ..                   ",
"             -                                                ......                 ....                  ",
"                                                              ......                ......                 ",
"                                                              ......                .......                ",
"                                                              ......               .........               ",
"                                  ...........................................................              ",
"                                  *...........................................................             ",
"                                                                                                           ",
"                                                                                                           ",
"                                                                                                           ",
"                                                                                                           ",
"                                                                                                           ",
"                                                                                                           ",
"                                                                                                           ",
"                                                                                                           ",
"                                                                                                           ",
"                                                                                                           ",
"                                                                                                           ",
"                                                                                                           ",
"                                                                                                           ",
"                                                                                                           ",
"                                                                                                           ",
"                                                                                                           ",
"                                                                                                           "};
